<svg id="SvgjsSvg1152" width="288" height="288" xmlns="http://www.w3.org/2000/svg" version="1.1" xmlns:xlink="http://www.w3.org/1999/xlink" xmlns:svgjs="http://svgjs.com/svgjs"><defs id="SvgjsDefs1153"></defs><g id="SvgjsG1154"><svg xmlns="http://www.w3.org/2000/svg" viewBox="0 0 32 32" width="288" height="288"><g stroke="#34455c" stroke-linecap="round" stroke-linejoin="round" class="colorStroke34485c svgStroke"><path fill="#549eff" style="isolation:auto;mix-blend-mode:normal" d="M-417.5 1424.862h5v5h-5z" color="#000" overflow="visible" transform="rotate(90 511.927 931.927)" class="color25b39e svgShape"></path><path fill="#0c75ff" style="isolation:auto;mix-blend-mode:normal" d="M-406.5 1417.362h5v5h-5zM-406.5 1432.362h5v5h-5z" color="#000" overflow="visible" transform="rotate(90 511.927 931.927)" class="colorf05542 svgShape"></path><path fill="#4e98f8" style="isolation:auto;mix-blend-mode:normal" d="M-395.5 1421.362h5v5h-5zM-395.5 1413.362h5v5h-5zM-395.5 1436.362h5v5h-5zM-395.5 1428.362h5v5h-5z" color="#000" overflow="visible" transform="rotate(90 511.927 931.927)" class="colorf8b84e svgShape"></path><path fill="none" d="M19.992 24v-2h8v2m-4-5v3m-19 2v-2h8v2m-4-5v3m0-9.007v-2h15v2m-7.5-5v3"></path></g></svg></g></svg>