<svg id="SvgjsSvg1121" width="288" height="288" xmlns="http://www.w3.org/2000/svg" version="1.1" xmlns:xlink="http://www.w3.org/1999/xlink" xmlns:svgjs="http://svgjs.com/svgjs"><defs id="SvgjsDefs1122"></defs><g id="SvgjsG1123"><svg xmlns="http://www.w3.org/2000/svg" viewBox="0 0 32 32" width="288" height="288"><g transform="translate(0 -1020.362)"><path fill="none" stroke="#d9d9d9" d="M2.5 1022.362v28m27.5-.5H2" class="colorStroke576d7e svgStroke"></path><rect width="4" height="11" x="6" y="1038.362" fill="#0d0d0d" color="#000" overflow="visible" rx="0" ry="0" style="isolation:auto;mix-blend-mode:normal" class="colorf05542 svgShape"></rect><rect style="isolation:auto;mix-blend-mode:normal" width="4" height="18" x="12" y="1031.362" fill="#0a4aff" color="#000" overflow="visible" rx="0" ry="0" class="color25b39e svgShape"></rect><rect width="4" height="9" x="18" y="1040.362" fill="#0d0d0d" color="#000" overflow="visible" rx="0" ry="0" style="isolation:auto;mix-blend-mode:normal" class="colorf05542 svgShape"></rect><rect style="isolation:auto;mix-blend-mode:normal" width="4" height="23" x="24" y="1026.362" fill="#0a4aff" color="#000" overflow="visible" rx="0" ry="0" class="color25b39e svgShape"></rect><path fill="#ffffff" fill-rule="evenodd" d="m7 1043.362 1 1 1-1h-.5v-4h-1v4zm12 2 1 1 1-1h-.5v-4h-1v4zm6-17 1-1 1 1h-.5v4h-1v-4zm-12 5 1-1 1 1h-.5v4h-1v-4z" class="colorcad1d8 svgShape"></path></g></svg></g></svg>